<?xml version="1.0" encoding="UTF-8"?>
<svg id="Layer_7" data-name="Layer 7" xmlns="http://www.w3.org/2000/svg" version="1.1" viewBox="0 0 1000 494.398">
  <defs>
    <style>
      .cls-1 {
        fill: #003a70;
        stroke-width: 0px;
      }
    </style>
  </defs>
  <path class="cls-1" d="M144.203,110.273v30.683c.398,3.67-2.255,6.967-5.925,7.365-.479.052-.962.052-1.44,0h-39.842v153.72c.398,3.67-2.255,6.967-5.925,7.365-.479.052-.962.052-1.44,0h-32.467c-3.67.398-6.967-2.255-7.365-5.925-.052-.479-.052-.962,0-1.44v-153.706H9.959c-3.671.403-6.973-2.245-7.377-5.916-.053-.482-.053-.968-.001-1.449v-30.697c-.404-3.671,2.244-6.974,5.914-7.378.486-.054.977-.054,1.464,0h126.869c3.671-.403,6.973,2.246,7.376,5.917.053.485.053.975,0,1.461Z"/>
  <path class="cls-1" d="M331.854,300.283c3.838,4.735,1.77,9.146-4.424,9.146h-37.767c-3.614.231-7.084-1.448-9.146-4.424l-50.259-63.434h-18.192v60.499c.398,3.67-2.255,6.967-5.925,7.365-.479.052-.962.052-1.44,0h-32.464c-3.669.405-6.972-2.241-7.377-5.91-.053-.484-.054-.971-.001-1.455V110.273c-.397-3.671,2.258-6.969,5.929-7.366.482-.052.968-.052,1.449.001h72.283c39.014-.095,70.718,31.456,70.812,70.47,0,.114,0,.228,0,.342,0,24.765-14.704,47.331-36.518,59.165l53.036,67.404.003-.005ZM212.067,200.266h32.454c12.984,0,23.605-11.508,23.605-26.554s-10.621-26.567-23.605-26.567h-32.454v53.121Z"/>
  <path class="cls-1" d="M518.909,309.427h-36.299c-3.938.368-7.512-2.312-8.262-6.195l-7.762-26.259h-72.388l-7.762,26.259c-.75,3.883-4.324,6.563-8.262,6.195h-36.299c-5.311,0-7.967-2.951-6.197-8.259l62.556-192.073c.994-3.853,4.586-6.455,8.557-6.197h47.208c3.97-.257,7.563,2.344,8.557,6.197l62.548,192.073c1.773,5.308-.873,8.259-6.192,8.259ZM453.51,232.717l-23.113-78.185-23.116,78.185h46.229Z"/>
  <path class="cls-1" d="M572.603,303.232l-59.894-192.073c-1.473-5.016.886-8.262,6.197-8.262h36.299c3.937-.367,7.51,2.314,8.259,6.197l41.013,145.752,41.01-145.752c.749-3.884,4.324-6.565,8.262-6.197h36.299c5.308,0,7.67,3.246,6.195,8.262l-59.894,192.073c-.858,3.814-4.36,6.44-8.262,6.195h-47.221c-3.903.247-7.406-2.379-8.265-6.195Z"/>
  <path class="cls-1" d="M840.507,271.368v30.686c.399,3.67-2.253,6.968-5.923,7.366-.484.052-.972.052-1.455-.001h-109.161c-3.67.398-6.967-2.255-7.365-5.925-.052-.479-.052-.962,0-1.44V110.273c-.403-3.671,2.245-6.973,5.916-7.377.482-.053.968-.053,1.449-.001h107.691c3.671-.397,6.969,2.258,7.366,5.929.052.482.052.968-.001,1.449v30.683c.398,3.67-2.255,6.967-5.925,7.365-.479.052-.962.052-1.44,0h-67.864v34.521h60.483c3.67-.398,6.967,2.255,7.365,5.925.052.479.052.962,0,1.44v29.505c.398,3.67-2.255,6.967-5.925,7.365-.479.052-.962.052-1.44,0h-60.483v36.915h69.334c3.671-.404,6.974,2.244,7.378,5.915.053.486.054.975,0,1.461Z"/>
  <path class="cls-1" d="M990.978,271.368v30.686c.398,3.67-2.255,6.967-5.925,7.365-.479.052-.962.052-1.44,0h-103.277c-3.67.398-6.967-2.255-7.365-5.925-.052-.479-.052-.962,0-1.44V110.273c-.403-3.671,2.245-6.973,5.916-7.377.482-.053.968-.053,1.449-.001h32.456c3.671-.397,6.969,2.258,7.366,5.929.052.482.052.968-.001,1.449v153.72h63.434c3.668-.41,6.975,2.231,7.385,5.9.055.49.055.985.001,1.476Z"/>
  <path class="cls-1" d="M5.658,421.184c0-41.381,30.733-73.125,73.125-73.125,32.141,0,59.447,20.088,67.698,49.417.827,2.146-.242,4.556-2.388,5.383-.647.249-1.346.333-2.033.244h-23.7c-2.557.052-4.845-1.582-5.626-4.017-5.624-12.258-18.676-19.688-33.948-19.688-24.91,0-40.981,16.674-40.981,41.784s16.072,41.784,40.981,41.784c15.256,0,28.324-7.433,33.948-19.688.782-2.435,3.069-4.068,5.626-4.017h23.702c3.42,0,5.224,2.01,4.422,5.221-7.836,29.331-35.358,49.822-67.698,49.822-42.394-.011-73.127-31.751-73.127-73.119Z"/>
  <path class="cls-1" d="M159.733,448.087v-92.203c-.275-2.5,1.528-4.749,4.028-5.024.33-.036.663-.036.993,0h22.095c2.5-.274,4.748,1.531,5.022,4.031.036.33.036.663,0,.993v89.391c0,10.648,5.024,17.679,20.091,17.679s20.088-7.031,20.088-17.679v-89.391c-.275-2.5,1.528-4.749,4.028-5.024.33-.036.663-.036.993,0h22.095c2.5-.275,4.749,1.528,5.024,4.028.036.331.036.665,0,.996v92.203c0,30.134-23.303,46.205-52.229,46.205s-52.229-16.072-52.229-46.205Z"/>
  <path class="cls-1" d="M399.989,485.252c2.612,3.217,1.205,6.229-3.012,6.229h-25.712c-2.461.158-4.824-.985-6.229-3.012l-34.221-43.191h-12.384v41.181c.275,2.498-1.527,4.746-4.025,5.021-.331.036-.665.036-.996,0h-22.095c-2.498.275-4.746-1.527-5.021-4.025-.036-.331-.036-.665,0-.996v-130.572c-.277-2.498,1.524-4.747,4.022-5.024.332-.037.667-.037.999,0h49.217c26.563-.063,48.147,21.42,48.21,47.983,0,.081,0,.162,0,.242-.324,16.957-9.852,32.394-24.865,40.284l36.11,45.892.003-.013ZM318.432,417.157h22.095c8.838,0,16.069-7.836,16.069-18.081s-7.231-18.081-16.069-18.081h-22.095v36.162Z"/>
  <path class="cls-1" d="M527.347,491.478h-24.71c-2.677.252-5.109-1.569-5.621-4.209l-5.287-17.887h-49.293l-5.284,17.887c-.515,2.64-2.948,4.46-5.626,4.209h-24.707c-3.617,0-5.424-2.007-4.209-5.624l42.589-130.775c.68-2.619,3.124-4.385,5.824-4.209h32.143c2.7-.176,5.144,1.59,5.824,4.209l42.586,130.775c1.197,3.617-.61,5.624-4.227,5.624ZM482.82,439.249l-15.738-53.234-15.74,53.234h31.478Z"/>
  <path class="cls-1" d="M621.759,355.884v20.89c.275,2.498-1.527,4.746-4.025,5.021-.331.036-.665.036-.996,0h-27.119v104.66c.275,2.498-1.527,4.746-4.025,5.021-.33.036-.663.036-.993,0h-22.095c-2.498.275-4.746-1.527-5.021-4.025-.036-.331-.036-.665,0-.996v-104.66h-27.127c-2.498.274-4.745-1.53-5.019-4.028-.036-.33-.036-.663,0-.993v-20.89c-.275-2.5,1.529-4.749,4.028-5.023.329-.036.661-.036.99,0h86.382c2.5-.274,4.748,1.531,5.022,4.031.036.33.036.663,0,.993Z"/>
  <path class="cls-1" d="M621.762,421.184c0-40.386,32.739-73.125,73.125-73.125s73.125,32.739,73.125,73.125-32.739,73.125-73.125,73.125h0c-40.037.349-72.776-31.825-73.125-71.862-.004-.421-.004-.842,0-1.263ZM735.863,421.184c0-25.11-18.079-41.784-40.979-41.784s-40.979,16.661-40.979,41.784,18.079,41.784,40.981,41.784,40.976-16.687,40.976-41.784Z"/>
  <path class="cls-1" d="M895.766,485.252c2.615,3.217,1.205,6.229-3.012,6.229h-25.712c-2.461.158-4.825-.985-6.229-3.012l-34.219-43.191h-12.387v41.181c.275,2.498-1.527,4.746-4.025,5.022-.332.037-.667.037-.999,0h-22.095c-2.498.275-4.746-1.527-5.021-4.025-.036-.331-.036-.665,0-.996v-130.572c-.277-2.498,1.524-4.747,4.022-5.024.332-.037.667-.037.999,0h49.217c26.563-.064,48.148,21.418,48.212,47.98,0,.082,0,.163,0,.245-.324,16.957-9.852,32.394-24.865,40.284l36.11,45.892.003-.013ZM814.209,417.157h22.095c8.838,0,16.069-7.836,16.069-18.081s-7.231-18.081-16.069-18.081h-22.095v36.162Z"/>
  <path class="cls-1" d="M897.771,452.509c-.402-2.469,1.274-4.797,3.743-5.199.423-.069.853-.077,1.279-.025h22.095c3.012,0,4.619,1.607,5.221,4.822,1.607,7.234,7.628,10.848,19.486,10.848,13.057,0,17.276-5.021,17.276-10.848,0-8.236-10.045-11.853-22.298-16.072-19.888-6.839-44.998-15.064-44.998-45.8,0-28.124,22.9-42.186,46.805-42.186,23.502,0,46.003,12.657,48.412,41.784.402,2.468-1.272,4.794-3.74,5.196-.424.069-.856.078-1.282.025h-22.095c-3.012,0-4.622-1.604-5.221-4.819-1.607-7.433-6.839-10.848-16.072-10.848-10.045,0-14.664,5.021-14.664,10.848,0,8.436,8.236,12.455,19.888,16.671,20.088,7.034,47.407,14.265,47.407,45.2,0,28.124-22.498,42.186-49.417,42.186-26.315,0-49.415-12.658-51.827-41.784Z"/>
  <path class="cls-1" d="M454.914,3.563v10.038c.132,1.2-.733,2.28-1.933,2.412-.159.018-.32.018-.479,0h-13.026v50.269c.132,1.2-.733,2.28-1.933,2.412-.159.017-.32.017-.479,0h-10.616c-1.2.132-2.28-.733-2.412-1.933-.017-.159-.017-.32,0-.479V16.013h-13.026c-1.2.132-2.28-.733-2.412-1.933-.017-.159-.017-.32,0-.479V3.563c-.132-1.2.733-2.28,1.933-2.412.159-.018.32-.018.479,0h41.492c1.2-.132,2.28.733,2.412,1.933.017.159.017.32,0,.479Z"/>
  <path class="cls-1" d="M354.323,42.353H3.956c-1.2.132-2.28-.733-2.412-1.933-.018-.159-.018-.32,0-.479v-10.038c-.132-1.2.733-2.28,1.933-2.412.159-.017.32-.017.479,0h378.833c1.2-.132,2.28.733,2.412,1.933.017.159.017.32,0,.479v10.038c.132,1.2-.733,2.28-1.933,2.412-.159.017-.32.017-.479,0h-28.466Z"/>
  <path class="cls-1" d="M966.589,42.353h-360.752c-1.2.132-2.28-.733-2.412-1.933-.017-.159-.017-.32,0-.479v-10.038c-.132-1.2.733-2.28,1.933-2.412.159-.017.32-.017.479,0h389.228c1.2-.132,2.28.733,2.412,1.933.017.159.017.32,0,.479v10.038c.132,1.2-.733,2.28-1.933,2.412-.159.017-.32.017-.479,0h-28.477Z"/>
  <path class="cls-1" d="M523.451,3.563v62.719c.131,1.202-.738,2.282-1.939,2.412-.157.017-.316.017-.473,0h-10.616c-1.2.132-2.28-.733-2.412-1.933-.017-.159-.017-.32,0-.479v-24.894h-19.294v24.894c.132,1.2-.733,2.28-1.933,2.412-.159.017-.32.017-.479,0h-10.616c-1.2.132-2.28-.733-2.412-1.933-.017-.159-.017-.32,0-.479V3.563c-.132-1.2.733-2.28,1.933-2.412.159-.018.32-.018.479,0h10.616c1.2-.132,2.28.733,2.412,1.933.017.159.017.32,0,.479v22.966h19.294V3.563c-.132-1.2.733-2.28,1.933-2.412.159-.018.32-.018.479,0h10.616c1.202-.131,2.282.738,2.412,1.939.017.157.017.316,0,.473Z"/>
  <path class="cls-1" d="M587.175,56.244v10.038c.131,1.202-.738,2.282-1.939,2.412-.157.017-.316.017-.473,0h-35.7c-1.198.134-2.278-.729-2.412-1.927-.018-.161-.018-.324,0-.485V3.563c-.134-1.198.729-2.278,1.927-2.412.161-.018.324-.018.485,0h35.213c1.2-.132,2.28.733,2.412,1.933.017.159.017.32,0,.479v10.038c.132,1.2-.733,2.28-1.933,2.412-.159.018-.32.018-.479,0h-22.187v11.29h19.775c1.2-.132,2.28.733,2.412,1.933.017.159.017.32,0,.479v9.648c.132,1.2-.733,2.28-1.933,2.412-.159.017-.32.017-.479,0h-19.775v12.058h22.674c1.202-.131,2.282.738,2.412,1.939.017.157.017.316,0,.473Z"/>
</svg>